<?xml version="1.0" encoding="UTF-8" standalone="no"?>
<svg
   height="24px"
   viewBox="0 -960 960 960"
   width="24px"
   fill="#1f1f1f">
  <defs
     id="defs2">
    <clipPath
       clipPathUnits="userSpaceOnUse"
       id="clipPath78">
      <path
         id="path79"
         style="fill:#ff0000;fill-opacity:1;fill-rule:nonzero;stroke:none;stroke-width:40"
         d="m 120,-880 v 800 h 504.92188 c -1.4208,-0.36 -2.8128,-0.7504 -4.21876,-1.172 -2.7676,-0.8296 -5.46456,-1.814 -8.20312,-2.7344 -12.28992,-4.86172 -23.3434,-12.15932 -33.59376,-20.39064 -6.87216,-5.80584 -12.85372,-12.583 -18.43748,-19.60936 -3.4112,-4.21288 -6.16584,-8.85324 -8.90624,-13.51564 h -0.08 c -1.9352,-2.3472 -2.0644,-2.5568 -3.672,-4.60936 -2.5744,-3.35 -5.0536,-6.69008 -7.57812,-10.07816 -5.51,-6.99992 -9.50432,-15.01296 -12.89064,-23.20312 -1.9488,-4.97316 -0.7752,-1.8596 -3.2032,-9.45312 -7.97124,-24.9304 -4.19328,-34.05308 5.78124,-34.7656 0.422,-0.0302 0.884,-0.076 1.328,-0.08 -1.2444,-4.27736 -2.1372,-8.6164 -2.5,-13.125 -0.132,-2.2684 -0.336,-4.52516 -0.392,-6.79684 -0.152,-6.4688 0.578,-12.93008 1.6404,-19.29688 1.0124,-5.20444 2.1092,-9.6768 3.2812,-14.29688 0.064,-0.248 0.092,-0.4604 0.156,-0.7032 -4.17152,-49.8472 22.30268,-77.5194 51.09372,-76.71876 18.86472,0.5248 38.77564,13.26992 51.71876,40 4.34196,-5.39796 8.03308,-7.93748 11.25,-8.20312 6.50708,-0.5372 11.01396,8.13472 14.68748,20.85936 -0.24,-13.6442 5.58004,-26.2576 16.4844,-35.07812 -6.27476,-2.9744 -12.44724,-6.07856 -18.43752,-9.60936 -5.26888,-2.9152 -10.46668,-5.98936 -15.93748,-8.51564 -30.79944,-14.22252 -29.38016,-23.85504 -15.15624,-31.95312 -31.38904,-34.87284 -9.40476,-78.52472 68.90624,-77.18748 11.6302,0.2 22.9758,2.9912 34.21872,5.70312 8.71432,2.0152 16.98764,5.35708 25.54688,7.89064 11.03452,3.0264 21.92216,6.742 32.5,11.09372 9.50996,4.11112 18.18572,9.76644 26.40628,16.01564 7.90428,5.947 14.5714,13.15004 20.70312,20.85936 0.8912,1.1696 1.7508,2.374 2.578,3.5936 V -880 Z m 547.03124,602.57812 c 9.1184,44.70156 15.97828,102.91176 49.14064,50.07812 l 3.3592,-5.31248 c -27.92408,-11.59468 -44.85652,-28.03024 -52.5,-44.76564 z m 63.90624,48.82812 c 1.03,1.3412 2.0552,2.674 3.1252,3.9844 15.80892,19.36312 23.61816,37.9776 25.46876,54.21876 30.43888,27.4356 18.37248,76.08656 -42.42188,90.39064 H 840 v -118.9844 c -11.75208,-4.55856 -23.75492,-13.21168 -34.84376,-26.71872 -16.29316,6.3384 -38.31576,7.36864 -65.07812,-0.236 -3.0608,-0.8688 -6.10596,-1.7312 -9.14064,-2.6564 z" />
    </clipPath>
  </defs>
  <path
     d="M440-183v-274L200-596v274l240 139Zm80 0 240-139v-274L520-457v274Zm-40-343 237-137-237-137-237 137 237 137ZM160-252q-19-11-29.5-29T120-321v-318q0-22 10.5-40t29.5-29l280-161q19-11 40-11t40 11l280 161q19 11 29.5 29t10.5 40v318q0 22-10.5 40T800-252L520-91q-19 11-40 11t-40-11L160-252Zm320-228Z"
     id="path1"
     clip-path="url(#clipPath78)" />
  <path
     d="M680-200H560v-80h120v-120h80v120h120v80H760v120h-80v-120Z"
     id="path2" />
</svg>
