<?xml version="1.0" encoding="UTF-8"?>
<svg width="24px" height="24px" fill="#1f1f1f" version="1.1" viewBox="0 -960 960 960" xmlns="http://www.w3.org/2000/svg">
 <path d="m440-183v-274l-240-139v274l240 139zm80 0 240-139v-274l-240 139v274zm-40-343 237-137-237-137-237 137 237 137zm-320 274q-19-11-29.5-29t-10.5-40v-318q0-22 10.5-40t29.5-29l280-161q19-11 40-11t40 11l280 161q19 11 29.5 29t10.5 40v318q0 22-10.5 40t-29.5 29l-280 161q-19 11-40 11t-40-11l-280-161z"/>
 <g fill="#1a1a1a" stroke-linecap="round" stroke-miterlimit="0" stroke-width=".042303">
  <path transform="matrix(40,0,0,40,0,-960)" d="m7.9882 17.663-2.9683-1.7215v-3.395c0-1.8673 0.00952-3.3946 0.021152-3.3941 0.011633 4.982e-4 1.3537 0.77303 2.9824 1.7167l2.9612 1.7158 0.0072 3.4019c0.0039 1.8711-0.0024 3.401-0.0141 3.3998-0.0117-0.0012-1.357-0.77683-2.9895-1.7237z" style="paint-order:markers fill stroke"/>
  <path transform="matrix(40,0,0,40,0,-960)" d="m7.9882 17.663-2.9683-1.7215v-3.395c0-1.8673 0.00952-3.3946 0.021152-3.3941 0.011633 4.982e-4 1.3537 0.77303 2.9824 1.7167l2.9612 1.7158 0.0072 3.4019c0.0039 1.8711-0.0024 3.401-0.0141 3.3998-0.0117-0.0012-1.357-0.77683-2.9895-1.7237z" style="paint-order:markers fill stroke"/>
  <path transform="matrix(40,0,0,40,0,-960)" d="m10.801 19.272c-0.24768-0.13989-2.6798-1.5446-3.483-2.0117-0.40329-0.23452-1.0865-0.62882-1.5183-0.87622l-0.78506-0.44982 0.017227-3.3685c0.00947-1.8527 0.021386-3.3726 0.02647-3.3777 0.010979-0.010979 0.55782 0.30196 3.5711 2.0436 1.2486 0.72172 2.2862 1.3268 2.3056 1.3446 0.02806 0.02569 0.03389 0.7303 0.0282 3.4078l-0.0072 3.3755z" style="paint-order:markers fill stroke"/>
 </g>
</svg>
