<?xml version="1.0" encoding="UTF-8"?>
<svg width="24px" height="24px" fill="#1f1f1f" version="1.1" viewBox="0 -960 960 960" xmlns="http://www.w3.org/2000/svg">
 <defs>
  <clipPath id="clipPath30">
   <path d="m80-880v72.656c4.2206-1.6682 8.4199-3.3722 12.656-5 0.43966-8.2623 1.5065-15.829 3.125-22.656-8.2337-13.734-8.5107-30.219-0.3125-45zm417.19 0c12.572 4.9482 21.636 14.563 25.859 26.719 4.0566-0.79812 8.0511-1.16 11.875-1.0938 40.939 0.7096 66.143 49.155 22.734 108.2-9.0825 12.355-20.071 23.221-31.094 33.828-17.066 15.235-35.445 28.896-53.281 43.203-1.3864 1.1696-2.746 2.3569-4.1406 3.5156 7.0061-1.7656 13.623-2.6863 19.844-2.8125 58.167-1.1802 79.015 64.403 6.1718 112.42-10.991 7.2451-22.967 12.726-35 17.969-16.705 6.489-33.267 13.217-49.687 20.391-12.375 5.5422-25 10.499-37.969 14.453-4.7039 1.3164-9.4395 2.4348-14.219 3.4376-2.2057 3.6592-5.1328 7.908-8.8281 12.812-11.399 15.129-27.804 24.884-43.906 34.219-5.9685 3.152-11.798 6.4533-17.109 10.625l-1.3281 1.172c-70.929 58.809-132.43 8.3344-102.81-50.313-0.49684-3.504-0.86036-7.5352-1.0156-12.187-0.0824-2.4656-0.2884-4.9557-0.2344-7.4219 0.13-5.93 1.1263-11.72 2.8125-17.344-0.388-0.504-0.78648-1.0456-1.1719-1.5624-4.1411 0.8072-8.2738 1.6352-12.422 2.422-13.902 2.6008-27.78 5.3122-41.641 8.125-19.813 4.0201-36.778 3.6818-50.625 0.31228v478.91h837.97v-840z" fill="#f00"/>
  </clipPath>
 </defs>
 <path d="m176-120c-12.667-2.6667-24.5-9.5-35.5-20.5s-17.833-22.833-20.5-35.5l664-664c14 3.3333 26 10.167 36 20.5s17 22.167 21 35.5zm-56-252v-112l356-356h112zm0-308v-80c0-22 7.8333-40.833 23.5-56.5s34.5-23.5 56.5-23.5h80zm720 92v112l-19 19c-13.333-6.6667-27.5-11.833-42.5-15.5s-30.5-6.1667-46.5-7.5zm-468 468 108-108c1.3333 16 3.8333 31.5 7.5 46.5s8.8333 29.167 15.5 42.5l-19 19z"/>
 <path transform="matrix(.58217 0 0 .58503 305.25 -98.526)" d="m592-40-18-84c-11.333-4-21.833-8.8333-31.5-14.5s-19.167-12.167-28.5-19.5l-80 26-56-96 64-56c-1.3333-12-2-24-2-36s0.66667-24 2-36l-64-56 56-96 80 26c9.3333-7.3333 18.833-13.833 28.5-19.5s20.167-10.5 31.5-14.5l18-84h112l18 84c11.333 4 21.833 8.8333 31.5 14.5s19.167 12.167 28.5 19.5l80-26 56 96-64 56c1.3333 12 2 24 2 36s-0.66667 24-2 36l64 56-56 96-80-26c-9.3333 7.3333-18.833 13.833-28.5 19.5s-20.167 10.5-31.5 14.5l-18 84zm56-160c33.333 0 61.667-11.667 85-35s35-51.667 35-85-11.667-61.667-35-85-51.667-35-85-35-61.667 11.667-85 35-35 51.667-35 85 11.667 61.667 35 85 51.667 35 85 35z" clip-path="url(#clipPath30)"/>
</svg>
