<?xml version="1.0" encoding="UTF-8" standalone="no"?>
<svg
   viewBox="0 0 24 24"
   fill="none"
   version="1.1"
   id="svg1"
   sodipodi:docname="texsetup.svg"
   xml:space="preserve"
   inkscape:version="1.4.3 (0d15f75, 2025-12-25)"
   xmlns:inkscape="http://www.inkscape.org/namespaces/inkscape"
   xmlns:sodipodi="http://sodipodi.sourceforge.net/DTD/sodipodi-0.dtd"
   xmlns="http://www.w3.org/2000/svg"
   xmlns:svg="http://www.w3.org/2000/svg"><defs
     id="defs1"><clipPath
       id="a"><path
         fill="#fff"
         d="M0 0h24v24H0z"
         id="path3" /></clipPath></defs><sodipodi:namedview
     id="namedview1"
     pagecolor="#ffffff"
     bordercolor="#000000"
     borderopacity="0.25"
     inkscape:showpageshadow="2"
     inkscape:pageopacity="0.0"
     inkscape:pagecheckerboard="0"
     inkscape:deskcolor="#d1d1d1"
     inkscape:zoom="35.458333"
     inkscape:cx="12"
     inkscape:cy="12"
     inkscape:window-width="1920"
     inkscape:window-height="1111"
     inkscape:window-x="-9"
     inkscape:window-y="-9"
     inkscape:window-maximized="1"
     inkscape:current-layer="svg1"
     showgrid="true"><inkscape:grid
       id="grid2"
       units="px"
       originx="0"
       originy="0"
       spacingx="1"
       spacingy="1"
       empcolor="#0099e5"
       empopacity="0.30196078"
       color="#0099e5"
       opacity="0.14901961"
       empspacing="5"
       enabled="true"
       visible="true" /></sodipodi:namedview><path
     d="m 2,2 8.014101,8.042303 M 2,6 9.9623972,13.990599 M 2,10 9.9106933,17.967098 M 2,14 10,22 M 2,18 6,22 M 6,2 13.934195,9.9623972 M 10,2 17.910693,9.8824912 M 14,2 l 8,8 m -4,-8 4,4"
     stroke="currentColor"
     stroke-width="1.5"
     stroke-linecap="round"
     id="path1"
     sodipodi:nodetypes="cccccccccccccccccc" /><path
     style="fill:#000000"
     d="m 11.139835,13.678026 -0.14101,7.417156"
     id="path2" /><g
     style="fill:none;stroke:currentColor;stroke-width:2.81407;stroke-linecap:round;stroke-linejoin:round;stroke-dasharray:none"
     id="g3"
     transform="matrix(0.52281496,0,0,0.50013352,10.887215,11.074773)"><g
       clip-path="url(#a)"
       id="g2"
       style="stroke-width:2.81407;stroke-dasharray:none"><path
         d="m 13.688,2.866 c 1.267,-1.718 3.988,-0.576 3.649,1.531 -0.216,1.34 0.995,2.537 2.315,2.338 2.11,-0.319 3.228,2.412 1.498,3.664 -1.099,0.795 -1.088,2.497 -0.016,3.289 1.718,1.267 0.576,3.988 -1.531,3.649 -1.34,-0.216 -2.537,0.995 -2.338,2.315 0.319,2.11 -2.412,3.228 -3.665,1.498 C 12.806,20.051 11.104,20.062 10.312,21.134 9.045,22.852 6.324,21.71 6.663,19.603 6.879,18.263 5.667,17.066 4.348,17.265 2.238,17.584 1.12,14.853 2.85,13.6 3.949,12.806 3.939,11.104 2.866,10.312 1.148,9.045 2.29,6.324 4.397,6.663 5.737,6.879 6.934,5.667 6.735,4.348 6.416,2.238 9.147,1.12 10.399,2.85 a 2.036,2.036 0 0 0 3.289,0.016 z"
         id="path1-8"
         style="stroke-width:2.81407;stroke-dasharray:none" /><path
         d="m 15.25,12 a 3.25,3.25 0 1 1 -6.5,0 3.25,3.25 0 0 1 6.5,0 z"
         id="path2-2"
         style="stroke-width:2.81407;stroke-dasharray:none" /></g></g></svg>
